HIERARCHY
ROOT Hips
{
	OFFSET 0.000000 71.427986 0.000000
	CHANNELS 6 Xposition Yposition Zposition Xrotation Yrotation Zrotation
	JOINT Pelvis
	{
		OFFSET 0.000000 0.000000 0.000000
		CHANNELS 3 Xrotation Yrotation Zrotation
		JOINT LeftUpLeg
		{
			OFFSET 6.797100 -2.508499 -1.318700
			CHANNELS 3 Xrotation Yrotation Zrotation
			JOINT LeftLeg
			{
				OFFSET 0.069008 -29.241863 0.690200
				CHANNELS 3 Xrotation Yrotation Zrotation
				JOINT LeftFoot
				{
					OFFSET -0.069008 -29.568123 -0.266800
					CHANNELS 3 Xrotation Yrotation Zrotation
					JOINT LeftToeBase
					{
						OFFSET 3.145500 -8.631000 16.059900
						CHANNELS 3 Xrotation Yrotation Zrotation
						End Site
						{
							OFFSET 0.000000 18.501587 0.000000
						}
					}
				}
			}
			JOINT Left_ShortSleeve
			{
				OFFSET 0.265923 -10.480953 1.153800
				CHANNELS 3 Xrotation Yrotation Zrotation
				End Site
				{
					OFFSET 1.725763 19.823879 0.000000
				}
			}
		}
		JOINT RightUpLeg
		{
			OFFSET -6.797100 -2.508499 -1.318700
			CHANNELS 3 Xrotation Yrotation Zrotation
			JOINT RightLeg
			{
				OFFSET -0.082453 -29.241932 0.688000
				CHANNELS 3 Xrotation Yrotation Zrotation
				JOINT RightFoot
				{
					OFFSET 0.082453 -29.568058 -0.264600
					CHANNELS 3 Xrotation Yrotation Zrotation
					JOINT RightToeBase
					{
						OFFSET -3.115300 -8.682800 16.113400
						CHANNELS 3 Xrotation Yrotation Zrotation
						End Site
						{
							OFFSET 0.000000 18.567114 0.000000
						}
					}
				}
			}
			JOINT Right_ShortSleeve
			{
				OFFSET -0.265923 -10.480953 1.153800
				CHANNELS 3 Xrotation Yrotation Zrotation
				End Site
				{
					OFFSET -1.725766 19.823910 0.000000
				}
			}
		}
	}
	JOINT Spine
	{
		OFFSET 0.000000 13.368103 0.470500
		CHANNELS 3 Xrotation Yrotation Zrotation
		JOINT Spine1
		{
			OFFSET 0.147000 13.837402 0.538800
			CHANNELS 3 Xrotation Yrotation Zrotation
			JOINT Spine2
			{
				OFFSET 0.168000 16.242897 -1.435500
				CHANNELS 3 Xrotation Yrotation Zrotation
				JOINT Neck
				{
					OFFSET 0.217200 18.631500 -1.679100
					CHANNELS 3 Xrotation Yrotation Zrotation
					JOINT Head
					{
						OFFSET 0.000000 6.599396 1.385900
						CHANNELS 3 Xrotation Yrotation Zrotation
						JOINT Hat
						{
							OFFSET -0.532200 27.220596 -10.096100
							CHANNELS 3 Xrotation Yrotation Zrotation
							End Site
							{
								OFFSET 0.000000 22.029861 0.000000
							}
						}
						JOINT HairD
						{
							OFFSET -10.777400 17.437393 -1.325900
							CHANNELS 3 Xrotation Yrotation Zrotation
							JOINT HairD1
							{
								OFFSET -3.290299 -11.051193 1.062200
								CHANNELS 3 Xrotation Yrotation Zrotation
								End Site
								{
									OFFSET 0.000000 11.579437 0.000000
								}
							}
						}
						JOINT HairB
						{
							OFFSET -10.777400 17.437393 1.467900
							CHANNELS 3 Xrotation Yrotation Zrotation
							JOINT HairB1
							{
								OFFSET -1.561200 -12.956299 3.590200
								CHANNELS 3 Xrotation Yrotation Zrotation
								End Site
								{
									OFFSET 0.000000 13.534866 0.000000
								}
							}
						}
						JOINT HairA
						{
							OFFSET 9.713100 17.437393 1.467900
							CHANNELS 3 Xrotation Yrotation Zrotation
							JOINT HairA1
							{
								OFFSET 1.561200 -12.956299 3.590200
								CHANNELS 3 Xrotation Yrotation Zrotation
								End Site
								{
									OFFSET 0.000000 13.534866 0.000000
								}
							}
						}
						JOINT HairC
						{
							OFFSET 9.713100 17.437393 -1.325900
							CHANNELS 3 Xrotation Yrotation Zrotation
							JOINT HairC1
							{
								OFFSET 3.290300 -11.051193 1.062200
								CHANNELS 3 Xrotation Yrotation Zrotation
								End Site
								{
									OFFSET 0.000000 11.579437 0.000000
								}
							}
						}
					}
				}
				JOINT LeftShoulder
				{
					OFFSET 5.101800 15.108002 -2.763700
					CHANNELS 3 Xrotation Yrotation Zrotation
					JOINT LeftArm
					{
						OFFSET 9.825497 2.506317 -1.597400
						CHANNELS 3 Xrotation Yrotation Zrotation
						JOINT LeftForeArm
						{
							OFFSET 21.966244 0.000000 0.000000
							CHANNELS 3 Xrotation Yrotation Zrotation
							JOINT LeftHand
							{
								OFFSET 33.879036 0.000000 0.000000
								CHANNELS 3 Xrotation Yrotation Zrotation
								JOINT LeftHandThumb1
								{
									OFFSET 6.715286 -2.359680 3.363841
									CHANNELS 3 Xrotation Yrotation Zrotation
									JOINT LeftHandThumb2
									{
										OFFSET 2.507072 -1.447464 1.447461
										CHANNELS 3 Xrotation Yrotation Zrotation
										JOINT LeftHandThumb3
										{
											OFFSET 2.898338 -1.673355 1.673357
											CHANNELS 3 Xrotation Yrotation Zrotation
											End Site
											{
												OFFSET -0.295959 3.727692 -0.131651
											}
										}
									}
								}
								JOINT LeftHandIndex1
								{
									OFFSET 14.190811 -0.254547 3.840278
									CHANNELS 3 Xrotation Yrotation Zrotation
									JOINT LeftHandIndex2
									{
										OFFSET 3.551727 0.000000 -0.000000
										CHANNELS 3 Xrotation Yrotation Zrotation
										JOINT LeftHandIndex3
										{
											OFFSET 2.894196 0.000000 0.000000
											CHANNELS 3 Xrotation Yrotation Zrotation
											End Site
											{
												OFFSET -1.000603 2.690872 0.366626
											}
										}
									}
								}
								JOINT LeftHandMiddle1
								{
									OFFSET 13.776489 0.000000 0.000000
									CHANNELS 3 Xrotation Yrotation Zrotation
									JOINT LeftHandMiddle2
									{
										OFFSET 3.438232 0.000000 0.000000
										CHANNELS 3 Xrotation Yrotation Zrotation
										JOINT LeftHandMiddle3
										{
											OFFSET 3.691551 0.000000 0.000000
											CHANNELS 3 Xrotation Yrotation Zrotation
											End Site
											{
												OFFSET -1.082298 3.499527 0.457670
											}
										}
									}
								}
								JOINT LeftHandRing1
								{
									OFFSET 13.966164 -0.268127 -3.067488
									CHANNELS 3 Xrotation Yrotation Zrotation
									JOINT LeftHandRing2
									{
										OFFSET 3.162567 0.000000 0.000000
										CHANNELS 3 Xrotation Yrotation Zrotation
										JOINT LeftHandRing3
										{
											OFFSET 3.324348 0.000000 0.000000
											CHANNELS 3 Xrotation Yrotation Zrotation
											End Site
											{
												OFFSET -0.861900 3.184998 0.405154
											}
										}
									}
								}
								JOINT LeftHandPinky1
								{
									OFFSET 13.131393 -0.168503 -5.746925
									CHANNELS 3 Xrotation Yrotation Zrotation
									JOINT LeftHandPinky2
									{
										OFFSET 2.849182 0.000000 0.000000
										CHANNELS 3 Xrotation Yrotation Zrotation
										JOINT LeftHandPinky3
										{
											OFFSET 2.805038 0.000000 0.000000
											CHANNELS 3 Xrotation Yrotation Zrotation
											End Site
											{
												OFFSET -0.882500 2.642609 0.325652
											}
										}
									}
								}
							}
							JOINT Left_Sleeve
							{
								OFFSET 6.592125 -0.646545 0.805568
								CHANNELS 3 Xrotation Yrotation Zrotation
								End Site
								{
									OFFSET -0.000179 20.275787 -0.000000
								}
							}
						}
					}
				}
				JOINT RightShoulder
				{
					OFFSET -5.731700 15.108002 -2.763700
					CHANNELS 3 Xrotation Yrotation Zrotation
					JOINT RightArm
					{
						OFFSET -9.825497 2.506317 -1.597400
						CHANNELS 3 Xrotation Yrotation Zrotation
						JOINT RightForeArm
						{
							OFFSET -21.966242 0.000000 0.000000
							CHANNELS 3 Xrotation Yrotation Zrotation
							JOINT RightHand
							{
								OFFSET -33.879032 0.000000 0.000000
								CHANNELS 3 Xrotation Yrotation Zrotation
								JOINT RightHandThumb1
								{
									OFFSET -6.715286 -2.359680 3.363841
									CHANNELS 3 Xrotation Yrotation Zrotation
									JOINT RightHandThumb2
									{
										OFFSET -2.507072 -1.447464 1.447461
										CHANNELS 3 Xrotation Yrotation Zrotation
										JOINT RightHandThumb3
										{
											OFFSET -2.898338 -1.673355 1.673357
											CHANNELS 3 Xrotation Yrotation Zrotation
											End Site
											{
												OFFSET 0.295959 3.727692 -0.131651
											}
										}
									}
								}
								JOINT RightHandIndex1
								{
									OFFSET -14.190811 -0.254547 3.840278
									CHANNELS 3 Xrotation Yrotation Zrotation
									JOINT RightHandIndex2
									{
										OFFSET -3.551727 0.000000 -0.000000
										CHANNELS 3 Xrotation Yrotation Zrotation
										JOINT RightHandIndex3
										{
											OFFSET -2.894196 0.000000 0.000000
											CHANNELS 3 Xrotation Yrotation Zrotation
											End Site
											{
												OFFSET 1.000603 2.690872 0.366626
											}
										}
									}
								}
								JOINT RightHandMiddle1
								{
									OFFSET -13.776489 0.000000 0.000000
									CHANNELS 3 Xrotation Yrotation Zrotation
									JOINT RightHandMiddle2
									{
										OFFSET -3.438232 0.000000 0.000000
										CHANNELS 3 Xrotation Yrotation Zrotation
										JOINT RightHandMiddle3
										{
											OFFSET -3.691551 0.000000 0.000000
											CHANNELS 3 Xrotation Yrotation Zrotation
											End Site
											{
												OFFSET 1.082298 3.499527 0.457670
											}
										}
									}
								}
								JOINT RightHandRing1
								{
									OFFSET -13.966164 -0.268127 -3.067488
									CHANNELS 3 Xrotation Yrotation Zrotation
									JOINT RightHandRing2
									{
										OFFSET -3.162567 0.000000 0.000000
										CHANNELS 3 Xrotation Yrotation Zrotation
										JOINT RightHandRing3
										{
											OFFSET -3.324348 0.000000 0.000000
											CHANNELS 3 Xrotation Yrotation Zrotation
											End Site
											{
												OFFSET 0.861900 3.184998 0.405154
											}
										}
									}
								}
								JOINT RightHandPinky1
								{
									OFFSET -13.131393 -0.168503 -5.746925
									CHANNELS 3 Xrotation Yrotation Zrotation
									JOINT RightHandPinky2
									{
										OFFSET -2.849182 0.000000 0.000000
										CHANNELS 3 Xrotation Yrotation Zrotation
										JOINT RightHandPinky3
										{
											OFFSET -2.805038 0.000000 0.000000
											CHANNELS 3 Xrotation Yrotation Zrotation
											End Site
											{
												OFFSET 0.882500 2.642609 0.325652
											}
										}
									}
								}
							}
							JOINT Right_Sleeve
							{
								OFFSET -6.592125 -0.646545 0.805568
								CHANNELS 3 Xrotation Yrotation Zrotation
								End Site
								{
									OFFSET 0.000179 20.275787 -0.000000
								}
							}
						}
					}
				}
				JOINT Bind_Right_JacketString
				{
					OFFSET -3.534800 11.969597 7.200700
					CHANNELS 3 Xrotation Yrotation Zrotation
					JOINT Bind_Right_JacketString1
					{
						OFFSET -0.319900 -6.102600 2.794100
						CHANNELS 3 Xrotation Yrotation Zrotation
						End Site
						{
							OFFSET 0.000000 6.719452 0.000000
						}
					}
				}
				JOINT Bind_Left_JacketString
				{
					OFFSET 2.904800 11.969597 7.200700
					CHANNELS 3 Xrotation Yrotation Zrotation
					JOINT Bind_Left_JacketString1
					{
						OFFSET 0.364800 -5.904503 3.186800
						CHANNELS 3 Xrotation Yrotation Zrotation
						End Site
						{
							OFFSET 0.000000 6.719513 0.000000
						}
					}
				}
				JOINT HairE
				{
					OFFSET 5.915200 17.612701 -11.592200
					CHANNELS 3 Xrotation Yrotation Zrotation
					JOINT HairE1
					{
						OFFSET 0.289200 -7.171898 -1.284500
						CHANNELS 3 Xrotation Yrotation Zrotation
						End Site
						{
							OFFSET 0.000000 7.291756 0.000000
						}
					}
				}
				JOINT HairF
				{
					OFFSET -0.864800 17.612701 -11.592200
					CHANNELS 3 Xrotation Yrotation Zrotation
					JOINT HairF1
					{
						OFFSET 0.000000 -14.087097 -2.127501
						CHANNELS 3 Xrotation Yrotation Zrotation
						End Site
						{
							OFFSET 0.000000 14.246841 0.000000
						}
					}
				}
				JOINT HairG
				{
					OFFSET -8.087700 17.612701 -11.592200
					CHANNELS 3 Xrotation Yrotation Zrotation
					JOINT HairG1
					{
						OFFSET -0.293600 -6.081398 -0.910100
						CHANNELS 3 Xrotation Yrotation Zrotation
						End Site
						{
							OFFSET 0.000000 6.156120 0.000000
						}
					}
				}
			}
		}
	}
	JOINT Pouch
	{
		OFFSET 0.000000 4.394501 10.847300
		CHANNELS 3 Xrotation Yrotation Zrotation
		End Site
		{
			OFFSET 0.000000 21.880577 0.000000
		}
	}
	JOINT Bag
	{
		OFFSET -13.229000 4.813004 -0.593300
		CHANNELS 3 Xrotation Yrotation Zrotation
		End Site
		{
			OFFSET 0.000000 21.880577 0.000000
		}
	}
	JOINT OccupyGuyFacialAnim_Joint
	{
		OFFSET 1.000000 -70.206398 -1.655000
		CHANNELS 3 Xrotation Yrotation Zrotation
		End Site
		{
			OFFSET 0.000000 21.880577 0.000000
		}
	}
}
MOTION
Frames: 4
Frame Time: 0.033333
-0.500059 70.411934 1.212099 -7.265842 -21.634445 -1.141927 -0.000000 -0.000002 -0.000000 -10.215270 3.433874 3.216733 19.380389 9.921545 3.487486 -1.202023 0.023050 -2.048536 0.000000 -0.000001 -0.000000 -0.000001 0.000001 0.000001 4.980703 -15.410456 -6.826284 15.824666 -9.894390 -4.102317 -7.797916 -27.135054 10.970660 -0.000000 0.000000 0.000000 -0.000000 0.000003 -0.000000 2.935858 0.845598 0.241289 5.706027 1.655161 0.046560 5.701144 1.665296 0.113341 -6.855323 4.695225 1.094527 7.356313 8.009637 -2.855393 0.000000 -0.000000 -0.000000 0.000000 -0.000000 -0.000000 0.000000 -0.000000 -0.000000 0.000000 -0.000000 -0.000000 0.000000 -0.000000 0.000000 0.000000 -0.000000 -0.000000 0.000000 -0.000000 0.000000 0.000000 -0.000000 -0.000000 0.000000 -0.000000 -0.000000 0.760462 9.844162 -11.801408 13.694535 -50.697636 -41.050472 -0.000169 -82.047367 -0.000167 -20.630769 -16.152289 58.324775 12.212242 6.036526 -8.712883 5.975224 12.647529 1.348344 0.000001 -0.000000 -0.000000 1.489960 6.219142 -46.026278 4.918403 5.776491 -80.812428 0.000002 0.000001 -0.000003 3.033008 7.465344 -65.121920 3.601257 5.402596 -67.351075 0.000000 -0.000000 -0.000001 3.883762 7.836679 -69.918058 3.412151 5.320133 -65.327392 -0.000000 -0.000001 0.000001 3.189746 7.690062 -75.471432 2.279017 4.637153 -52.326434 0.000001 -0.000001 -0.000001 0.000001 -0.000001 -0.000001 -3.002014 12.533791 10.513512 -5.652869 59.881771 44.536651 0.000151 78.543863 -0.000164 -46.367426 6.501174 -40.237447 32.130651 38.912032 9.291969 20.823872 -37.088846 -0.292997 0.000003 0.000000 -0.000000 2.216600 -6.204272 57.585373 1.992904 -3.821192 55.075493 0.000000 -0.000001 -0.000002 3.962062 -6.871856 80.768018 3.253749 -4.441120 72.443425 -0.000000 0.000000 0.000001 5.085930 -6.916466 94.647905 2.176992 -3.943083 57.794008 -0.000000 -0.000001 0.000002 4.020052 -6.888685 82.190829 2.455262 -4.104766 61.757355 0.000000 0.000002 0.000001 -0.000002 -0.000000 0.000001 0.000000 0.000000 0.000000 0.000000 0.000000 0.000000 0.000000 0.000000 0.000000 0.000000 0.000000 0.000000 0.000000 0.000000 0.000000 0.000000 0.000000 0.000000 0.000000 0.000000 0.000000 0.000000 0.000000 0.000000 0.000000 0.000000 0.000000 0.000000 0.000000 0.000000 -0.000000 -0.000002 -0.000000 -0.000000 -0.000002 -0.000000 -0.000000 -0.000002 -0.000000 
-0.510018 70.407082 1.167691 -7.305026 -21.853204 -1.178808 -0.000000 0.000002 -0.000000 -10.180358 3.435030 3.228666 19.366175 10.086500 3.536767 -1.188279 0.063424 -2.104764 -0.000000 0.000000 -0.000000 0.000001 0.000001 0.000000 4.814062 -15.472539 -6.976768 16.020076 -9.882369 -3.955853 -7.888699 -26.850981 10.902469 -0.000000 -0.000000 -0.000000 -0.000000 0.000000 -0.000000 2.993640 0.883975 0.218437 5.742622 1.733903 0.046560 5.738629 1.742719 0.092350 -6.805334 4.665845 1.092858 7.220207 8.070975 -2.904158 0.000000 0.000000 -0.000000 0.000000 0.000000 -0.000000 0.000000 0.000000 -0.000000 0.000000 0.000000 -0.000000 -0.000000 0.000000 0.000000 0.000000 0.000000 -0.000000 -0.000000 0.000000 0.000000 0.000000 0.000000 -0.000000 0.000000 0.000000 -0.000000 0.774978 9.918262 -11.894920 13.547101 -50.824209 -41.163149 -0.000177 -82.092303 -0.000215 -19.766252 -15.510933 59.923797 12.212242 6.036525 -8.712882 5.975225 12.647532 1.348344 0.000001 0.000001 -0.000001 1.489961 6.219154 -46.026264 4.918407 5.776489 -80.812449 0.000002 0.000000 -0.000000 3.033019 7.465349 -65.121920 3.601245 5.402599 -67.351068 0.000001 -0.000000 0.000002 3.883768 7.836691 -69.918058 3.412155 5.320134 -65.327385 -0.000000 0.000000 -0.000003 3.189736 7.690085 -75.471432 2.279017 4.637155 -52.326428 0.000000 0.000000 0.000003 0.000001 -0.000001 0.000004 -2.976587 12.433710 10.563838 -6.060331 59.887058 44.795461 -0.000108 78.260888 0.000100 -46.749230 6.996484 -38.392821 32.130682 38.912035 9.291949 20.823896 -37.088853 -0.292993 0.000003 0.000000 0.000002 2.216600 -6.204251 57.585380 1.992920 -3.821196 55.075510 -0.000001 -0.000001 -0.000003 3.962073 -6.871842 80.768011 3.253764 -4.441115 72.443418 0.000001 0.000000 -0.000006 5.085948 -6.916459 94.647905 2.177012 -3.943076 57.794008 -0.000000 -0.000001 0.000004 4.020072 -6.888644 82.190835 2.455232 -4.104767 61.757355 0.000000 0.000001 -0.000001 -0.000001 0.000001 0.000001 -0.000000 0.000001 -0.000000 -0.000000 0.000001 0.000000 -0.000000 0.000001 0.000000 -0.000000 0.000001 0.000000 -0.000000 0.000001 -0.000000 -0.000000 0.000001 0.000000 -0.000000 0.000001 0.000000 -0.000000 0.000001 0.000000 -0.000000 0.000001 -0.000000 -0.000000 0.000001 0.000000 -0.000000 0.000002 -0.000000 -0.000000 0.000002 -0.000000 -0.000000 0.000002 -0.000000 
-0.513519 70.402916 1.127716 -7.326333 -22.136653 -1.210262 0.000000 0.000001 0.000000 -10.144913 3.463474 3.259328 19.346101 10.108511 3.570616 -1.172235 0.287873 -2.160089 -0.000000 -0.000001 -0.000000 -0.000000 0.000001 -0.000000 4.535365 -15.509454 -7.138205 16.381182 -9.895047 -3.802757 -8.085576 -26.465737 10.732820 -0.000000 0.000000 0.000000 0.000000 -0.000003 -0.000000 3.012381 0.931317 0.223662 5.746341 1.825103 0.061123 5.742331 1.834099 0.101306 -6.757422 4.629714 1.127559 7.109139 8.159801 -2.925889 0.000000 -0.000000 -0.000000 0.000000 -0.000000 -0.000000 0.000000 -0.000000 -0.000000 0.000000 -0.000000 -0.000000 0.000000 -0.000000 0.000000 0.000000 -0.000000 -0.000000 0.000000 -0.000000 0.000000 0.000000 -0.000000 -0.000000 0.000000 -0.000000 -0.000000 0.785148 10.002003 -11.965998 13.398459 -50.940869 -41.321931 -0.000442 -82.138707 -0.000456 -18.892911 -14.509817 61.023294 12.212245 6.036533 -8.712879 5.975227 12.647534 1.348343 -0.000000 0.000001 -0.000001 1.489954 6.219153 -46.026275 4.918425 5.776482 -80.812449 0.000002 0.000001 -0.000003 3.033010 7.465340 -65.121926 3.601256 5.402603 -67.351082 -0.000000 0.000000 0.000002 3.883766 7.836665 -69.918065 3.412169 5.320127 -65.327399 0.000001 0.000001 -0.000002 3.189737 7.690079 -75.471439 2.279019 4.637153 -52.326431 0.000001 -0.000000 0.000001 -0.000004 -0.000002 -0.000001 -2.945035 12.318916 10.587453 -6.150563 59.802787 44.780257 0.000113 78.032329 -0.000103 -47.510478 7.788729 -36.894756 32.130648 38.912032 9.291986 20.823891 -37.088856 -0.292997 0.000001 0.000000 -0.000001 2.216601 -6.204266 57.585386 1.992938 -3.821166 55.075504 -0.000000 -0.000001 0.000004 3.962067 -6.871844 80.768011 3.253752 -4.441110 72.443432 0.000000 -0.000000 -0.000003 5.085939 -6.916471 94.647905 2.177016 -3.943080 57.794001 -0.000001 0.000000 0.000002 4.020062 -6.888677 82.190835 2.455222 -4.104796 61.757348 -0.000000 0.000000 0.000006 -0.000002 0.000001 -0.000000 -0.000000 0.000000 -0.000000 0.000000 0.000000 -0.000000 -0.000000 0.000000 -0.000000 -0.000000 0.000000 -0.000000 -0.000000 0.000000 -0.000000 0.000000 0.000000 -0.000000 -0.000000 0.000000 -0.000000 -0.000000 0.000000 -0.000000 -0.000000 0.000000 -0.000000 0.000000 0.000000 -0.000000 0.000000 0.000001 0.000000 0.000000 0.000001 0.000000 0.000000 0.000001 0.000000 
-0.513370 70.397560 1.091025 -7.352699 -22.444191 -1.225481 -0.000000 0.000002 0.000000 -10.090362 3.511740 3.280868 19.319825 10.114192 3.570302 -1.160755 0.532280 -2.208297 0.000000 0.000000 -0.000000 -0.000001 0.000000 0.000000 4.213788 -15.542727 -7.336038 16.800373 -9.904545 -3.667643 -8.296875 -26.047498 10.564021 -0.000000 0.000000 0.000000 0.000000 -0.000001 -0.000000 3.007256 0.976153 0.236358 5.732984 1.905590 0.084916 5.728986 1.914477 0.119615 -6.749996 4.590132 1.164245 6.973197 8.238238 -2.968337 0.000000 -0.000001 0.000000 0.000000 -0.000001 0.000000 0.000000 -0.000001 -0.000000 0.000000 -0.000001 -0.000000 0.000000 -0.000000 0.000000 0.000000 -0.000001 -0.000000 0.000000 -0.000000 0.000000 0.000000 -0.000001 0.000000 0.000000 -0.000001 0.000000 0.805429 10.179040 -12.125798 13.319977 -50.983606 -41.368786 0.000047 -82.296341 0.000060 -17.917948 -12.706889 61.660947 12.212243 6.036517 -8.712895 5.975227 12.647530 1.348344 -0.000002 -0.000000 0.000001 1.489965 6.219129 -46.026275 4.918411 5.776487 -80.812449 0.000002 -0.000000 0.000003 3.033007 7.465343 -65.121926 3.601248 5.402617 -67.351075 0.000000 0.000001 -0.000001 3.883773 7.836666 -69.918065 3.412144 5.320124 -65.327392 -0.000002 -0.000000 -0.000000 3.189739 7.690078 -75.471452 2.279019 4.637154 -52.326438 -0.000000 -0.000000 -0.000002 0.000003 -0.000002 -0.000001 -2.928106 12.184242 10.691900 -5.968329 59.616896 44.518685 0.000144 77.694276 -0.000154 -48.976097 9.025599 -35.398261 32.130648 38.912025 9.291972 20.823891 -37.088836 -0.292993 -0.000000 -0.000001 0.000000 2.216606 -6.204266 57.585380 1.992929 -3.821181 55.075504 -0.000001 0.000001 0.000001 3.962067 -6.871821 80.768005 3.253751 -4.441105 72.443418 0.000001 0.000001 0.000003 5.085935 -6.916492 94.647905 2.177029 -3.943078 57.794008 -0.000000 0.000000 -0.000000 4.020062 -6.888678 82.190835 2.455244 -4.104791 61.757334 -0.000000 0.000001 0.000001 -0.000002 -0.000000 -0.000002 0.000000 0.000000 -0.000000 0.000001 0.000002 -0.000000 0.000000 0.000000 -0.000000 0.000000 0.000000 -0.000000 0.000000 0.000000 -0.000000 0.000001 0.000002 -0.000001 0.000000 0.000000 -0.000000 0.000000 0.000000 -0.000000 0.000000 0.000000 -0.000000 0.000001 0.000002 -0.000001 -0.000000 0.000002 0.000000 -0.000000 0.000002 0.000000 -0.000000 0.000002 0.000000 
